PathFileType	4	(X/Y/Z)	C:\Users\Basilio\Documents\Thesis Gigler\squatting_fais\c3dfiles\019\SLS_front_pre1\markers_experimental.trc
DataRate	CameraRate	NumFrames	NumMarkers	Units	OrigDataRate	OrigDataStartFrame	OrigNumFrames
200.000000	200.000000	4	59	mm	200.000000	1019	1631
Frame#	Time	LBHD			RBHD			C7			T10			CLAV			LSHO			LUUPA			LMUPA			LDUPA			LLEP			LMEP			LRAD			LUL			LRFIN			RSHO			RUPA1			RMUPA			RDUPA			RLEP			RRAD			RUL			RUFIN			LASI			RASI			USACR			LSACR			RSACR			LTHI1			LTHI2			LTHI3			LTHI4			LLFC			LTIB1			LTIB2			LTIB3			LTIB4			LLMAL			LMMAL			LHEE			LMT1			LMT2			LMT5			RTHI			RTHI3			RTHI4			RLFC			RTIB1			RTIB2			RTIB3			RTIB4			RLMAL			RMMAL			RHEE			RMT1			RMT2			RMT5			FHD			RTHI2			RMEP			
		X1	Y1	Z1	X2	Y2	Z2	X3	Y3	Z3	X4	Y4	Z4	X5	Y5	Z5	X6	Y6	Z6	X7	Y7	Z7	X8	Y8	Z8	X9	Y9	Z9	X10	Y10	Z10	X11	Y11	Z11	X12	Y12	Z12	X13	Y13	Z13	X14	Y14	Z14	X15	Y15	Z15	X16	Y16	Z16	X17	Y17	Z17	X18	Y18	Z18	X19	Y19	Z19	X20	Y20	Z20	X21	Y21	Z21	X22	Y22	Z22	X23	Y23	Z23	X24	Y24	Z24	X25	Y25	Z25	X26	Y26	Z26	X27	Y27	Z27	X28	Y28	Z28	X29	Y29	Z29	X30	Y30	Z30	X31	Y31	Z31	X32	Y32	Z32	X33	Y33	Z33	X34	Y34	Z34	X35	Y35	Z35	X36	Y36	Z36	X37	Y37	Z37	X38	Y38	Z38	X39	Y39	Z39	X40	Y40	Z40	X41	Y41	Z41	X42	Y42	Z42	X43	Y43	Z43	X44	Y44	Z44	X45	Y45	Z45	X46	Y46	Z46	X47	Y47	Z47	X48	Y48	Z48	X49	Y49	Z49	X50	Y50	Z50	X51	Y51	Z51	X52	Y52	Z52	X53	Y53	Z53	X54	Y54	Z54	X55	Y55	Z55	X56	Y56	Z56	X57	Y57	Z57	X58	Y58	Z58	X59	Y59	Z59	

1020	5.095	-287.5430603027344	1384.4931640625	-783.708190917969	-293.3205871582032	1378.638671875	-643.8536987304689	-348.8834228515626	1246.224853515625	-702.9789428710939	-508.2379150390626	1012.339111328125	-708.1923828125001	-143.6046752929688	1189.38623046875	-736.7504882812501	-264.2644042968751	1244.965576171875	-819.9956054687502	-148.9006652832032	1227.915283203125	-875.6536865234377	-121.6966018676758	1211.305908203125	-834.0515747070315	-82.60904693603517	1224.8857421875	-877.7819824218752	-11.23327350616455	1205.0439453125	-915.246276855469	-12.03831100463868	1145.01318359375	-912.9836425781252	236.6121215820313	1195.193237304688	-824.143981933594	235.4747161865235	1208.95068359375	-891.2785644531252	306.1833190917969	1214.155395507813	-817.313171386719	-253.0375976562501	1237.39013671875	-600.3226318359376	-146.1717529296875	1196.185668945313	-490.3755493164064	-123.9531555175782	1216.646728515625	-529.5494384765626	-76.96765136718751	1194.84130859375	-491.0698242187501	0.2771196067333222	1195.1640625	-504.7778625488282	228.4672546386719	1213.912231445313	-614.4375610351564	246.2894134521485	1227.973754882813	-552.1807250976564	310.1954956054688	1234.785522460938	-626.9831542968751	-461.4397277832032	793.7562255859377	-840.5545043945315	-446.7141418457032	768.1663818359377	-636.5777587890626	-583.3697509765626	882.4154052734377	-724.3986206054689	-602.3348999023439	855.8120117187502	-752.1886596679689	-597.1622924804689	851.9847412109377	-695.8874511718751	-388.8382873535157	654.2363891601564	-947.0649414062502	-303.1103210449219	661.3611450195314	-950.9815673828127	-287.5741271972657	702.9296875000001	-931.2788696289065	-262.1533813476563	615.8916625976564	-944.878112792969	-180.8198547363282	569.8735351562501	-928.1060180664065	-75.71395111083986	468.7251892089845	-900.2015380859377	-119.8079910278321	406.9316711425782	-946.7820434570315	-82.41162109375001	416.597869873047	-926.1143798828127	-59.49550628662111	341.6647033691407	-887.9714355468752	-87.96147918701173	198.1992187500001	-903.0466308593752	-67.73387908935548	213.5347900390626	-824.558532714844	-139.7780914306641	153.850082397461	-842.965515136719	70.46166229248048	162.3353881835938	-841.576354980469	72.07927703857423	158.6826171875	-880.7103271484377	28.68993377685548	125.1960144042969	-926.275573730469	-428.5039672851564	624.9128417968751	-568.1136474609376	-350.6345214843751	656.2113647460939	-597.4675292968751	-312.6211242675782	561.1787109375001	-584.6869506835939	-218.8713836669922	447.4033508300782	-635.4987182617189	-223.2728881835938	288.4830017089844	-714.3327026367189	-297.5136413574219	226.0162200927735	-659.4512939453126	-268.2481689453126	212.467758178711	-696.9575195312501	-299.0877380371094	188.9817352294922	-740.6815795898439	-383.2591552734376	125.2080001831055	-695.7944335937501	-370.0316772460938	135.2574157714844	-773.8208007812502	-455.6742248535157	105.240463256836	-750.0155639648439	-258.1864929199219	56.3129234313965	-779.426208496094	-249.0846557617188	53.65694808959962	-737.0911865234376	-291.2260437011719	48.7265968322754	-678.2400512695314	-158.8714141845703	1406.026977539063	-638.7725830078126	-363.3923950195313	626.6853027343751	-580.3294067382814	-5.025229930877686	1135.00830078125	-508.3793945312501	
1021	5.100000000000001	-288.1203308105469	1386.153564453125	-783.5347290039065	-293.8793029785157	1379.904052734375	-643.9904174804689	-349.0851135253907	1247.700073242188	-702.8672485351564	-508.2649536132814	1013.625	-708.2055053710939	-143.8836669921875	1191.102661132813	-736.6678466796876	-264.5235900878907	1246.546875	-819.8995361328127	-149.3231048583985	1229.58154296875	-875.722839355469	-121.945556640625	1213.051513671875	-834.0946044921877	-83.01213836669923	1226.473999023438	-877.935485839844	-11.82632064819336	1206.7734375	-915.308288574219	-12.52583885192871	1146.69873046875	-913.2256469726565	236.1727600097657	1196.479370117188	-824.3603515625002	235.1928710937501	1210.531616210938	-891.3203125000002	305.8035278320313	1215.635498046875	-817.503601074219	-253.5138854980469	1239.144897460938	-600.0469970703126	-146.5896606445313	1197.847900390625	-490.3179321289064	-124.2544174194336	1218.203857421875	-529.5737915039064	-77.39376831054689	1196.461669921875	-491.1201782226564	0.01039665844291449	1196.718505859375	-504.712860107422	228.4163208007813	1215.768798828125	-614.3386230468751	245.8372192382813	1229.801879882813	-552.0151977539064	309.9665832519532	1236.294189453125	-627.2437744140626	-461.1512145996095	794.9868164062502	-840.4546508789065	-446.5640563964845	769.2770996093752	-636.5772094726564	-583.2902221679689	883.4910278320315	-724.3995971679689	-601.5747070312501	856.6756591796877	-752.1800537109376	-596.9615478515626	853.1736450195315	-695.8933105468751	-388.526336669922	655.2864990234376	-946.9951782226565	-302.8226623535157	662.4205322265626	-950.9035644531252	-287.3192749023438	704.0761108398439	-931.2610473632815	-261.9304809570313	616.9885253906251	-944.9063720703127	-180.6552276611328	570.9844970703126	-928.1174316406252	-75.74256896972658	469.6723022460939	-900.1745605468752	-119.8304061889649	407.8006286621095	-946.6924438476565	-82.4940643310547	417.4616699218751	-926.0830688476565	-59.64870071411134	342.5008850097657	-887.991149902344	-88.24116516113283	199.0569458007813	-902.9357910156252	-68.01326751708986	214.416732788086	-824.4229125976565	-145.8893585205078	159.8817291259766	-845.6593017578127	69.91392517089845	162.9576568603516	-841.5488891601565	71.78905487060548	159.4480285644532	-880.6607666015627	28.35948181152344	126.0108337402344	-926.1834716796877	-428.3977966308595	625.7177124023439	-567.8945312500001	-350.8441467285157	656.8048095703126	-597.5353393554689	-312.7597961425782	561.6239624023439	-584.6580200195314	-219.3312377929688	447.7203674316407	-635.3333129882814	-223.4922332763672	288.6576232910157	-714.2510986328126	-297.6861572265626	226.1331481933594	-659.3937988281251	-268.4233703613282	212.620346069336	-696.9191894531251	-299.0964355468751	189.01513671875	-740.6643676757814	-383.2913513183594	125.1754989624024	-695.7818603515626	-370.0521240234376	135.2484283447266	-773.8762207031252	-455.7451782226564	105.1936645507813	-750.0097045898439	-258.1265869140626	56.31756591796876	-779.3506469726565	-249.1075744628907	53.73072052001955	-737.1348876953126	-291.2362976074219	48.75074386596681	-678.2456054687501	-159.3395080566407	1407.832763671875	-638.7155151367189	-363.3116760253907	627.3490600585939	-580.1826171875001	-5.44104814529419	1136.496704101563	-508.3887634277345	
1022	5.105	-288.1656799316407	1387.747314453125	-783.4718017578127	-294.2870483398438	1381.639770507813	-643.9591674804689	-349.5726318359376	1249.541748046875	-702.9764404296876	-508.3843383789064	1014.884399414063	-708.1617431640626	-144.2772827148438	1192.740844726563	-736.7315673828126	-265.2375183105469	1248.350830078125	-820.0388793945315	-149.6878509521485	1231.173217773438	-875.8181152343752	-122.4991073608399	1214.538696289063	-834.2346191406252	-83.37487030029298	1228.124755859375	-878.0596923828127	-11.93889999389649	1208.385864257813	-915.441833496094	-13.02379894256592	1148.296997070313	-913.395202636719	235.785140991211	1198.367553710938	-824.617126464844	234.7426757812501	1212.114135742188	-891.5927734375002	305.3329772949219	1217.125732421875	-817.786804199219	-252.4782867431641	1239.760498046875	-601.2994995117189	-146.8604888916016	1199.41015625	-490.3405151367189	-124.6545715332032	1219.794067382813	-529.6139526367189	-77.59698486328126	1197.979248046875	-491.0498962402345	-0.5150681138038636	1198.464111328125	-504.8263244628907	227.5931549072266	1216.776489257813	-614.6296997070314	245.5414428710938	1231.311889648438	-552.1694335937501	310.8155517578126	1237.849853515625	-627.0131835937501	-460.9322509765626	796.2467041015627	-840.4418945312502	-446.4861145019532	770.4595336914065	-636.5135498046876	-583.0479736328126	884.7357177734377	-724.4034423828126	-601.3764648437501	857.9236450195315	-752.1401367187501	-597.1053466796876	854.3665771484377	-695.8635864257814	-388.3247985839845	656.5067138671876	-946.9340820312502	-302.7628479003907	663.6431884765626	-950.902282714844	-287.0408020019532	705.1657714843751	-931.172302246094	-261.7539978027344	618.0921630859376	-944.8628540039065	-180.3852233886719	571.9534912109376	-927.9963378906252	-75.72982788085939	470.511688232422	-900.0942993164065	-119.9338684082032	408.7034606933595	-946.5993652343752	-82.55049896240236	418.3157958984376	-926.0764770507815	-59.61963653564455	343.3163757324219	-887.8602294921877	-89.10808563232423	199.8721618652344	-903.139099121094	-68.34200286865236	215.3679199218751	-824.3066406250002	-146.3364410400391	160.7940521240235	-845.675231933594	70.05503082275392	163.614990234375	-841.425476074219	71.36390686035158	160.254867553711	-880.6392211914065	27.35932159423829	126.7641677856446	-926.7473144531252	-428.4064331054689	626.5523071289064	-567.8687133789064	-350.3948059082032	657.5009155273439	-597.2170410156251	-312.9570617675782	562.1430664062501	-584.5504150390626	-219.7172546386719	448.0720520019532	-635.2702636718751	-223.7700195312501	288.9061279296876	-714.1715698242189	-297.8648376464844	226.2091522216797	-659.3677368164064	-268.6239929199219	212.7164611816407	-696.8624267578126	-299.2674255371094	189.1666107177735	-740.6518554687501	-383.3287658691407	125.1447525024414	-695.7907104492189	-370.0439758300782	135.2037048339844	-773.8421630859377	-455.7150878906251	105.1539001464844	-750.0089111328126	-258.1750183105469	56.31016921997072	-779.366882324219	-249.1020965576172	53.71829223632814	-737.1213378906251	-291.2585449218751	48.7122039794922	-678.2517089843751	-159.7922058105469	1409.44140625	-638.7623901367189	-363.2045288085938	628.0037841796876	-580.0609130859376	-5.708687782287599	1138.25390625	-508.3568115234376	
1023	5.11	-288.6640319824219	1389.296752929688	-783.4990844726565	-294.8502502441407	1383.257202148438	-643.9050903320314	-349.9829406738282	1250.679809570313	-702.8615722656251	-508.4509277343751	1016.152099609375	-708.2032470703126	-144.5140533447266	1194.402709960938	-736.5968627929689	-265.7279968261719	1249.791137695313	-820.3909301757815	-150.1165771484375	1232.817260742188	-875.8718261718752	-125.2008972167969	1215.728393554688	-837.1458129882815	-83.93099212646486	1229.786743164063	-878.1775512695315	-12.59478187561036	1209.944946289063	-915.6358032226565	-13.27132511138916	1149.954345703125	-913.4866333007815	235.363998413086	1199.7216796875	-824.7505493164065	234.6286621093751	1213.723754882813	-891.5579833984377	304.8068542480469	1218.804565429688	-818.0371093750002	-254.3905944824219	1242.193481445313	-600.3414306640626	-147.16748046875	1201.038940429688	-490.3817138671876	-125.1388397216797	1221.448608398438	-529.5958862304689	-78.02915191650392	1199.588989257813	-491.032196044922	-0.7005463838577272	1199.95751953125	-504.6437377929689	227.2789459228516	1218.629638671875	-614.3597412109376	245.2214508056641	1232.943603515625	-552.1843872070314	308.6995239257813	1239.779174804688	-627.0225830078126	-460.904510498047	797.639099121094	-840.4214477539065	-446.3236694335939	771.5847167968752	-636.4461059570314	-583.1080322265626	885.9780273437502	-724.2551269531251	-602.1209716796876	859.5306396484377	-752.1066284179689	-596.5372314453126	855.441833496094	-696.0227661132814	-388.1563110351564	657.8341674804689	-946.881774902344	-302.7359008789063	664.8618774414064	-950.894714355469	-286.7413024902344	706.2653808593751	-931.1319580078127	-261.5438232421876	619.1256103515626	-944.7716064453127	-180.207992553711	572.8569946289064	-927.9218750000002	-75.78032684326173	471.3995666503907	-899.9932861328127	-120.0724716186524	409.7802124023439	-946.5573730468752	-82.76628875732423	419.3568420410157	-926.031921386719	-59.789608001709	344.1121520996094	-887.799499511719	-89.5896453857422	200.8528442382813	-903.0974731445315	-68.93178558349611	216.1331939697266	-824.4432373046877	-146.7213134765625	161.7619171142578	-845.632995605469	69.67189025878908	164.3987884521485	-841.3709716796877	70.83364105224611	160.9668884277344	-880.559020996094	26.89134216308594	127.7018051147461	-926.667419433594	-428.339569091797	627.5112304687501	-567.8538208007814	-349.7986145019532	658.1640014648439	-596.8616943359376	-313.0772705078126	562.6519165039064	-584.4960327148439	-220.0896148681641	448.3197631835939	-635.2059936523439	-224.0647430419922	289.1646423339844	-714.1047973632814	-298.0415344238282	226.3257904052735	-659.4331665039064	-268.7457885742188	212.8893432617188	-696.8003540039064	-299.3404846191407	189.2357940673828	-740.4373168945314	-383.3652954101563	125.1814193725586	-695.8364257812501	-370.1763305664063	135.2551574707032	-773.8197021484377	-455.7440490722657	105.1415252685547	-750.0424194335939	-258.2197265625001	56.29100418090822	-779.3909912109377	-249.1005554199219	53.77925491333009	-737.1513671875001	-291.2330932617188	48.78799057006837	-678.2490844726564	-160.3111877441407	1411.132934570313	-638.7748413085939	-363.2481079101563	628.7293090820314	-580.0827636718751	-5.850773334503175	1140.095581054688	-508.155975341797	
